# xmcd
#
# Track frame offsets:
#	150
#	15863
#	32348
#	49600
#	62500
#	76485
#	90283
#	105278
#	118338
#	136123
#	152010
#	169073
#	186705
#	200580
#	217445
#	235710
#	250205
#	263290
#	275788
#	291675
#	308885
#
# Disc length: 4327 seconds
# Revision: 0
# Processed by: cddbd v1.5.2PL0 Copyright (c) Steve Scherf et al.
# Submitted via: dBpowerAMP V12.0
#
DISCID=2510e515
DTITLE=Jeff Stevens and Steve Bogard - A Car, A Boy, And A Girl
DYEAR=1994
DGENRE=Country
TTITLE0=Let's Get Out Of Town
TTITLE1=I Can't Take It Back
TTITLE2=My Heart Will Go With You
TTITLE3=I LIke You Like That
TTITLE4=The Thought Has Crossed My Mind
TTITLE5=Savin' The Best For You
TTITLE6=Buildin' Church On Sunday
TTITLE7=Renegade
TTITLE8=Dedication
TTITLE9=I Just Love Women
TTITLE10=You've Got To Put Your Foot Down Somewhere
TTITLE11=Take It All Out On Me
TTITLE12=Dream Magazine
TTITLE13=I'd Be There
TTITLE14=You Broke My Heart All Over The Place
TTITLE15=No One Knows Tomorrow
TTITLE16=I Wish I Could Play Like That
TTITLE17=Don't 'Cha Know
TTITLE18=She's Tough
TTITLE19=Life and Death Situation
TTITLE20=We're On A Roll
EXTD=
EXTT0=
EXTT1=
EXTT2=
EXTT3=
EXTT4=
EXTT5=
EXTT6=
EXTT7=
EXTT8=
EXTT9=
EXTT10=
EXTT11=
EXTT12=
EXTT13=
EXTT14=
EXTT15=
EXTT16=
EXTT17=
EXTT18=
EXTT19=
EXTT20=
PLAYORDER=
